<?xml version="1.0" encoding="UTF-8" standalone="no"?>
<!-- Created with Inkscape (http://www.inkscape.org/) -->

<svg
   version="1.1"
   id="svg2"
   width="615.11444"
   height="230.55115"
   viewBox="0 0 615.11444 230.55115"
   sodipodi:docname="8852632_4005505.svg"
   inkscape:version="1.2.2 (732a01da63, 2022-12-09)"
   xmlns:inkscape="http://www.inkscape.org/namespaces/inkscape"
   xmlns:sodipodi="http://sodipodi.sourceforge.net/DTD/sodipodi-0.dtd"
   xmlns="http://www.w3.org/2000/svg"
   xmlns:svg="http://www.w3.org/2000/svg">
  <defs
     id="defs6">
    <clipPath
       clipPathUnits="userSpaceOnUse"
       id="clipPath1576-6-4">
      <path
         d="M 0,500 H 750 V 0 H 0 Z"
         id="path1574-6-2" />
    </clipPath>
    <clipPath
       clipPathUnits="userSpaceOnUse"
       id="clipPath1526-8-0">
      <path
         d="M 0,500 H 750 V 0 H 0 Z"
         id="path1524-8-5" />
    </clipPath>
  </defs>
  <sodipodi:namedview
     id="namedview4"
     pagecolor="#ffffff"
     bordercolor="#000000"
     borderopacity="0.25"
     inkscape:showpageshadow="2"
     inkscape:pageopacity="0.0"
     inkscape:pagecheckerboard="0"
     inkscape:deskcolor="#d1d1d1"
     showgrid="false"
     inkscape:zoom="1.3406452"
     inkscape:cx="249.50673"
     inkscape:cy="158.87873"
     inkscape:window-width="1920"
     inkscape:window-height="1009"
     inkscape:window-x="-8"
     inkscape:window-y="-8"
     inkscape:window-maximized="1"
     inkscape:current-layer="g2674" />
  <g
     id="g8"
     inkscape:groupmode="layer"
     inkscape:label="8852632_4005505"
     transform="matrix(1.3333333,0,0,-1.3333333,-212.63467,546.07219)">
    <g
       id="g248"
       transform="translate(57.071964,-36.600509)" />
    <g
       id="g2674"
       transform="translate(-51.488837,34.119109)"
       inkscape:groupmode="layer">
      <g
         id="g1520"
         transform="matrix(3.3948942,0,0,3.3802264,-1670.1882,-8.7005616)">
        <g
           id="g1522"
           clip-path="url(#clipPath1526-8-0)">
          <path
             d="M 559.258,112.208 H 689.883 V 63.911 H 559.258 Z"
             style="fill:none;stroke:#dbdbdb;stroke-width:0.241;stroke-linecap:butt;stroke-linejoin:miter;stroke-miterlimit:10;stroke-dasharray:none;stroke-opacity:1"
             id="path1528" />
          <g
             id="g1530"
             transform="translate(559.2579,71.9613)">
            <path
               d="M 0,0 H 130.625"
               style="fill:none;stroke:#dbdbdb;stroke-width:0.241;stroke-linecap:butt;stroke-linejoin:miter;stroke-miterlimit:10;stroke-dasharray:none;stroke-opacity:1"
               id="path1532" />
          </g>
          <g
             id="g1534"
             transform="translate(559.2579,80.0101)">
            <path
               d="M 0,0 H 130.625"
               style="fill:none;stroke:#dbdbdb;stroke-width:0.241;stroke-linecap:butt;stroke-linejoin:miter;stroke-miterlimit:10;stroke-dasharray:none;stroke-opacity:1"
               id="path1536" />
          </g>
          <g
             id="g1538"
             transform="translate(559.2579,88.0599)">
            <path
               d="M 0,0 H 130.625"
               style="fill:none;stroke:#dbdbdb;stroke-width:0.241;stroke-linecap:butt;stroke-linejoin:miter;stroke-miterlimit:10;stroke-dasharray:none;stroke-opacity:1"
               id="path1540" />
          </g>
          <g
             id="g1542"
             transform="translate(559.2579,96.1097)">
            <path
               d="M 0,0 H 130.625"
               style="fill:none;stroke:#dbdbdb;stroke-width:0.241;stroke-linecap:butt;stroke-linejoin:miter;stroke-miterlimit:10;stroke-dasharray:none;stroke-opacity:1"
               id="path1544" />
          </g>
          <g
             id="g1546"
             transform="translate(559.2579,104.1586)">
            <path
               d="M 0,0 H 130.625"
               style="fill:none;stroke:#dbdbdb;stroke-width:0.241;stroke-linecap:butt;stroke-linejoin:miter;stroke-miterlimit:10;stroke-dasharray:none;stroke-opacity:1"
               id="path1548" />
          </g>
        </g>
      </g>
      <text
         xml:space="preserve"
         transform="scale(1.0021673,-0.99783738)"
         style="font-variant:normal;font-weight:300;font-stretch:normal;font-size:12.4062px;font-family:'Montserrat Light';-inkscape-font-specification:Montserrat-Light;writing-mode:lr-tb;fill:#b5b5b5;fill-opacity:1;fill-rule:nonzero;stroke:none;stroke-width:3.38755"
         id="text1564"
         x="217.69679"
         y="-203.14839"><tspan
           x="217.69679"
           y="-203.14839"
           id="tspan1550"
           style="stroke-width:3.38755">0</tspan><tspan
           x="210.04216 217.69679"
           y="-230.46684"
           sodipodi:role="line"
           id="tspan1552"
           style="stroke-width:3.38755">10</tspan><tspan
           x="210.04216 217.69679"
           y="-257.78537"
           sodipodi:role="line"
           id="tspan1554"
           style="stroke-width:3.38755">20</tspan><tspan
           x="210.04216 217.69679"
           y="-285.10391"
           sodipodi:role="line"
           id="tspan1556"
           style="stroke-width:3.38755">30</tspan><tspan
           x="210.04216 217.69679"
           y="-312.41006"
           sodipodi:role="line"
           id="tspan1558"
           style="stroke-width:3.38755">40</tspan><tspan
           x="210.04216 217.69679"
           y="-339.72852"
           sodipodi:role="line"
           id="tspan1560"
           style="stroke-width:3.38755">50</tspan><tspan
           x="210.04216 217.69679"
           y="-367.04706"
           sodipodi:role="line"
           id="tspan1562"
           style="stroke-width:3.38755">60</tspan></text>
      <g
         id="g1570"
         transform="matrix(3.3948942,0,0,3.3802264,-1670.1882,-8.7005616)">
        <g
           id="g1572"
           clip-path="url(#clipPath1576-6-4)">
          <g
             id="g1578"
             transform="translate(570.9078,63.9593)">
            <path
               d="m 0,0 c 0,-0.539 -0.437,-0.977 -0.977,-0.977 -0.539,0 -0.976,0.438 -0.976,0.977 0,0.539 0.437,0.977 0.976,0.977 C -0.437,0.977 0,0.539 0,0"
               style="fill:#f86624;fill-opacity:1;fill-rule:nonzero;stroke:none"
               id="path1580" />
          </g>
          <g
             id="g1582"
             transform="translate(584.5826,72.0521)">
            <path
               d="m 0,0 c 0,-0.539 -0.437,-0.977 -0.977,-0.977 -0.539,0 -0.976,0.438 -0.976,0.977 0,0.54 0.437,0.977 0.976,0.977 C -0.437,0.977 0,0.54 0,0"
               style="fill:#f86624;fill-opacity:1;fill-rule:nonzero;stroke:none"
               id="path1584" />
          </g>
          <g
             id="g1586"
             transform="translate(598.257,87.8197)">
            <path
               d="m 0,0 c 0,-0.539 -0.437,-0.977 -0.977,-0.977 -0.539,0 -0.976,0.438 -0.976,0.977 0,0.539 0.437,0.977 0.976,0.977 C -0.437,0.977 0,0.539 0,0"
               style="fill:#f86624;fill-opacity:1;fill-rule:nonzero;stroke:none"
               id="path1588" />
          </g>
          <g
             id="g1590"
             transform="translate(611.9313,76.517)">
            <path
               d="m 0,0 c 0,-0.539 -0.437,-0.977 -0.977,-0.977 -0.539,0 -0.976,0.438 -0.976,0.977 0,0.54 0.437,0.978 0.976,0.978 C -0.437,0.978 0,0.54 0,0"
               style="fill:#f86624;fill-opacity:1;fill-rule:nonzero;stroke:none"
               id="path1592" />
          </g>
          <g
             id="g1594"
             transform="translate(625.6056,96.1918)">
            <path
               d="m 0,0 c 0,-0.539 -0.437,-0.977 -0.977,-0.977 -0.539,0 -0.976,0.438 -0.976,0.977 0,0.539 0.437,0.977 0.976,0.977 C -0.437,0.977 0,0.539 0,0"
               style="fill:#f86624;fill-opacity:1;fill-rule:nonzero;stroke:none"
               id="path1596" />
          </g>
          <g
             id="g1598"
             transform="translate(639.2799,87.4007)">
            <path
               d="m 0,0 c 0,-0.539 -0.437,-0.977 -0.977,-0.977 -0.539,0 -0.976,0.438 -0.976,0.977 0,0.54 0.437,0.978 0.976,0.978 C -0.437,0.978 0,0.54 0,0"
               style="fill:#f86624;fill-opacity:1;fill-rule:nonzero;stroke:none"
               id="path1600" />
          </g>
          <g
             id="g1602"
             transform="translate(652.9542,80.0052)">
            <path
               d="m 0,0 c 0,-0.539 -0.437,-0.977 -0.977,-0.977 -0.539,0 -0.976,0.438 -0.976,0.977 0,0.54 0.437,0.978 0.976,0.978 C -0.437,0.978 0,0.54 0,0"
               style="fill:#f86624;fill-opacity:1;fill-rule:nonzero;stroke:none"
               id="path1604" />
          </g>
          <g
             id="g1606"
             transform="translate(666.6285,87.8197)">
            <path
               d="m 0,0 c 0,-0.539 -0.437,-0.977 -0.977,-0.977 -0.539,0 -0.976,0.438 -0.976,0.977 0,0.539 0.437,0.977 0.976,0.977 C -0.437,0.977 0,0.539 0,0"
               style="fill:#f86624;fill-opacity:1;fill-rule:nonzero;stroke:none"
               id="path1608" />
          </g>
          <g
             id="g1610"
             transform="translate(680.3033,96.1918)">
            <path
               d="m 0,0 c 0,-0.539 -0.437,-0.977 -0.977,-0.977 -0.539,0 -0.976,0.438 -0.976,0.977 0,0.539 0.437,0.977 0.976,0.977 C -0.437,0.977 0,0.539 0,0"
               style="fill:#f86624;fill-opacity:1;fill-rule:nonzero;stroke:none"
               id="path1612" />
          </g>
          <g
             id="g1614"
             transform="translate(569.9313,63.9593)">
            <path
               d="M 0,0 13.675,8.093 27.349,23.86 41.023,12.558 54.698,32.232 68.372,23.441 82.046,16.046 95.721,23.86 109.396,32.232"
               style="fill:none;stroke:#f86624;stroke-width:0.5;stroke-linecap:butt;stroke-linejoin:miter;stroke-miterlimit:10;stroke-dasharray:none;stroke-opacity:1"
               id="path1616" />
          </g>
          <g
             id="g1618"
             transform="translate(570.9078,74.3734)">
            <path
               d="m 0,0 c 0,-0.54 -0.437,-0.977 -0.977,-0.977 -0.539,0 -0.976,0.437 -0.976,0.977 0,0.539 0.437,0.977 0.976,0.977 C -0.437,0.977 0,0.539 0,0"
               style="fill:#662e9b;fill-opacity:1;fill-rule:nonzero;stroke:none"
               id="path1620" />
          </g>
          <g
             id="g1622"
             transform="translate(584.5826,67.0824)">
            <path
               d="m 0,0 c 0,-0.54 -0.437,-0.977 -0.977,-0.977 -0.539,0 -0.976,0.437 -0.976,0.977 0,0.539 0.437,0.977 0.976,0.977 C -0.437,0.977 0,0.539 0,0"
               style="fill:#662e9b;fill-opacity:1;fill-rule:nonzero;stroke:none"
               id="path1624" />
          </g>
          <g
             id="g1626"
             transform="translate(598.257,79.5873)">
            <path
               d="m 0,0 c 0,-0.54 -0.437,-0.977 -0.977,-0.977 -0.539,0 -0.976,0.437 -0.976,0.977 0,0.539 0.437,0.977 0.976,0.977 C -0.437,0.977 0,0.539 0,0"
               style="fill:#662e9b;fill-opacity:1;fill-rule:nonzero;stroke:none"
               id="path1628" />
          </g>
          <g
             id="g1630"
             transform="translate(611.9313,103.5873)">
            <path
               d="m 0,0 c 0,-0.54 -0.437,-0.977 -0.977,-0.977 -0.539,0 -0.976,0.437 -0.976,0.977 0,0.539 0.437,0.977 0.976,0.977 C -0.437,0.977 0,0.539 0,0"
               style="fill:#662e9b;fill-opacity:1;fill-rule:nonzero;stroke:none"
               id="path1632" />
          </g>
          <g
             id="g1634"
             transform="translate(625.6056,96.1918)">
            <path
               d="m 0,0 c 0,-0.539 -0.437,-0.977 -0.977,-0.977 -0.539,0 -0.976,0.438 -0.976,0.977 0,0.539 0.437,0.977 0.976,0.977 C -0.437,0.977 0,0.539 0,0"
               style="fill:#662e9b;fill-opacity:1;fill-rule:nonzero;stroke:none"
               id="path1636" />
          </g>
          <g
             id="g1638"
             transform="translate(639.2799,80.7035)">
            <path
               d="m 0,0 c 0,-0.54 -0.437,-0.977 -0.977,-0.977 -0.539,0 -0.976,0.437 -0.976,0.977 0,0.539 0.437,0.977 0.976,0.977 C -0.437,0.977 0,0.539 0,0"
               style="fill:#662e9b;fill-opacity:1;fill-rule:nonzero;stroke:none"
               id="path1640" />
          </g>
          <g
             id="g1642"
             transform="translate(652.9542,87.8197)">
            <path
               d="m 0,0 c 0,-0.539 -0.437,-0.977 -0.977,-0.977 -0.539,0 -0.976,0.438 -0.976,0.977 0,0.539 0.437,0.977 0.976,0.977 C -0.437,0.977 0,0.539 0,0"
               style="fill:#662e9b;fill-opacity:1;fill-rule:nonzero;stroke:none"
               id="path1644" />
          </g>
          <g
             id="g1646"
             transform="translate(666.6285,95.7728)">
            <path
               d="m 0,0 c 0,-0.539 -0.437,-0.977 -0.977,-0.977 -0.539,0 -0.976,0.438 -0.976,0.977 0,0.54 0.437,0.977 0.976,0.977 C -0.437,0.977 0,0.54 0,0"
               style="fill:#662e9b;fill-opacity:1;fill-rule:nonzero;stroke:none"
               id="path1648" />
          </g>
          <g
             id="g1650"
             transform="translate(680.3033,72.1918)">
            <path
               d="m 0,0 c 0,-0.539 -0.437,-0.977 -0.977,-0.977 -0.539,0 -0.976,0.438 -0.976,0.977 0,0.539 0.437,0.977 0.976,0.977 C -0.437,0.977 0,0.539 0,0"
               style="fill:#662e9b;fill-opacity:1;fill-rule:nonzero;stroke:none"
               id="path1652" />
          </g>
          <g
             id="g1654"
             transform="translate(569.9313,74.3734)">
            <path
               d="m 0,0 13.675,-7.291 13.674,12.505 13.674,24 13.675,-7.396 13.674,-15.488 13.674,7.116 13.675,7.953 13.675,-23.581"
               style="fill:none;stroke:#662e9b;stroke-width:0.5;stroke-linecap:butt;stroke-linejoin:miter;stroke-miterlimit:10;stroke-dasharray:none;stroke-opacity:1"
               id="path1656" />
          </g>
        </g>
      </g>
    </g>
  </g>
</svg>
